<svg width="35" height="35" viewBox="0 0 35 35" fill="none" xmlns="http://www.w3.org/2000/svg">
<rect width="35" height="35" fill="#1E1E1E"/>
<g clip-path="url(#clip0_0_1)">
<rect x="-86" y="-380" width="1440" height="1024" fill="#BE4652"/>
<rect className="hover:fill-cyan-500" width="330" height="270" transform="translate(-25 -210)" fill="#FF7979"/>
<g filter="url(#filter0_d_0_1)">
<path d="M-25 -200C-25 -205.523 -20.5228 -210 -15 -210H295C300.523 -210 305 -205.523 305 -200V50C305 55.5229 300.523 60 295 60H-15C-20.5229 60 -25 55.5229 -25 50V-200Z" fill="#FF7979"/>
</g>
<path d="M14.7063 9.11865L17.5 6.32487C20.586 3.23893 25.5893 3.23893 28.6752 6.32487C31.7611 9.41079 31.7611 14.4141 28.6752 17.5L25.8814 20.2937M9.11868 14.7063L6.32489 17.5C3.23895 20.586 3.23895 25.5892 6.32489 28.6752C9.41081 31.761 14.4141 31.761 17.5 28.6752L20.2938 25.8813" stroke="#501A1A" stroke-width="1.5" stroke-linecap="round" stroke-linejoin="round"/>
<path d="M23.3334 11.6667L11.6667 23.3333" stroke="#501A1A" stroke-width="1.5" stroke-linecap="round" stroke-linejoin="round"/>
</g>
<defs>
<filter id="filter0_d_0_1" x="-29" y="-212" width="342" height="282" filterUnits="userSpaceOnUse" color-interpolation-filters="sRGB">
<feFlood flood-opacity="0" result="BackgroundImageFix"/>
<feColorMatrix in="SourceAlpha" type="matrix" values="0 0 0 0 0 0 0 0 0 0 0 0 0 0 0 0 0 0 127 0" result="hardAlpha"/>
<feOffset dx="2" dy="4"/>
<feGaussianBlur stdDeviation="3"/>
<feColorMatrix type="matrix" values="0 0 0 0 0 0 0 0 0 0 0 0 0 0 0 0 0 0 0.05 0"/>
<feBlend mode="normal" in2="BackgroundImageFix" result="effect1_dropShadow_0_1"/>
<feBlend mode="normal" in="SourceGraphic" in2="effect1_dropShadow_0_1" result="shape"/>
</filter>
<clipPath id="clip0_0_1">
<rect x="-86" y="-380" width="1440" height="1024" fill="white"/>
</clipPath>
</defs>
</svg>




